<svg width="54" height="52" viewBox="0 0 54 52" fill="none" xmlns="http://www.w3.org/2000/svg">
<path d="M24.3333 38.9167H29.6666V28.5834H40.3333V23.4167H29.6666V13.0834H24.3333V23.4167H13.6666V28.5834H24.3333V38.9167ZM27 51.8334C23.3111 51.8334 19.8444 51.166 16.6 49.8313C13.3555 48.4535 10.5333 46.6021 8.13331 44.2771C5.73331 41.9521 3.8222 39.2181 2.39998 36.075C1.0222 32.932 0.333313 29.5736 0.333313 26C0.333313 22.4264 1.0222 19.0681 2.39998 15.925C3.8222 12.782 5.73331 10.0479 8.13331 7.72294C10.5333 5.39793 13.3555 3.56807 16.6 2.23335C19.8444 0.855575 23.3111 0.166687 27 0.166687C30.6889 0.166687 34.1555 0.855575 37.4 2.23335C40.6444 3.56807 43.4667 5.39793 45.8666 7.72294C48.2667 10.0479 50.1555 12.782 51.5333 15.925C52.9555 19.0681 53.6666 22.4264 53.6666 26C53.6666 29.5736 52.9555 32.932 51.5333 36.075C50.1555 39.2181 48.2667 41.9521 45.8666 44.2771C43.4667 46.6021 40.6444 48.4535 37.4 49.8313C34.1555 51.166 30.6889 51.8334 27 51.8334ZM27 46.6667C32.9555 46.6667 38 44.6646 42.1333 40.6604C46.2667 36.6563 48.3333 31.7695 48.3333 26C48.3333 20.2306 46.2667 15.3438 42.1333 11.3396C38 7.33544 32.9555 5.33335 27 5.33335C21.0444 5.33335 16 7.33544 11.8666 11.3396C7.73331 15.3438 5.66665 20.2306 5.66665 26C5.66665 31.7695 7.73331 36.6563 11.8666 40.6604C16 44.6646 21.0444 46.6667 27 46.6667Z" fill="#EDEAE8"/>
</svg>
